 <svg
    width="117"
    height="117"
    viewBox="0 0 117 117"
    fill="none"
    xmlns="http://www.w3.org/2000/svg"
    class="rotate"
  >
    <path
      d="M58.53 89.3195C41.5526 89.3195 27.7405 75.5074 27.7405 58.5301C27.7405 41.5527 41.5526 27.7406 58.53 27.7406C75.5073 27.7406 89.3194 41.5527 89.3194 58.5301C89.3194 75.5074 75.5073 89.3195 58.53 89.3195ZM58.53 33.8985C44.948 33.8985 33.8984 44.9481 33.8984 58.5301C33.8984 72.112 44.948 83.1617 58.53 83.1617C72.1119 83.1617 83.1615 72.112 83.1615 58.5301C83.1615 44.9481 72.1119 33.8985 58.53 33.8985Z"
      fill="white"
    />
    <path
      d="M58.5001 22.7842C56.7996 22.7842 55.4211 21.4058 55.4211 19.7053V3.07895C55.4211 1.37846 56.7996 0 58.5001 0C60.2006 0 61.579 1.37846 61.579 3.07895V19.7053C61.579 21.4058 60.2006 22.7842 58.5001 22.7842Z"
      fill="white"
    />
    <path
      d="M58.5001 117C56.7996 117 55.4211 115.622 55.4211 113.921V97.2948C55.4211 95.5943 56.7996 94.2158 58.5001 94.2158C60.2006 94.2158 61.579 95.5943 61.579 97.2948V113.921C61.579 115.622 60.2006 117 58.5001 117Z"
      fill="white"
    />
    <path
      d="M19.7053 61.5789H3.07895C1.37846 61.5789 0 60.2005 0 58.5C0 56.7995 1.37846 55.421 3.07895 55.421H19.7053C21.4058 55.421 22.7842 56.7995 22.7842 58.5C22.7842 60.2005 21.4058 61.5789 19.7053 61.5789Z"
      fill="white"
    />
    <path
      d="M113.921 61.5789H97.2948C95.5943 61.5789 94.2158 60.2005 94.2158 58.5C94.2158 56.7995 95.5943 55.421 97.2948 55.421H113.921C115.622 55.421 117 56.7995 117 58.5C117 60.2005 115.622 61.5789 113.921 61.5789Z"
      fill="white"
    />
    <path
      d="M85.7615 34.3173C84.9736 34.3173 84.1855 34.0168 83.5843 33.4156C82.3821 32.2132 82.3821 30.2636 83.5843 29.0612L95.5113 17.1342C96.7137 15.9318 98.6633 15.9318 99.8658 17.1342C101.068 18.3366 101.068 20.2862 99.8658 21.4886L87.9387 33.4156C87.3375 34.0168 86.5495 34.3173 85.7615 34.3173Z"
      fill="white"
    />
    <path
      d="M19.3113 100.768C18.5234 100.768 17.7353 100.467 17.1341 99.8659C15.9319 98.6635 15.9319 96.7139 17.1341 95.5114L29.0611 83.5844C30.2635 82.382 32.2131 82.382 33.4156 83.5844C34.6178 84.7868 34.6178 86.7364 33.4156 87.9389L21.4885 99.8659C20.8873 100.467 20.0993 100.768 19.3113 100.768Z"
      fill="white"
    />
    <path
      d="M31.2383 34.3173C30.4504 34.3173 29.6623 34.0168 29.0611 33.4156L17.1341 21.4886C15.9319 20.2862 15.9319 18.3366 17.1341 17.1342C18.3365 15.9318 20.2861 15.9318 21.4885 17.1342L33.4156 29.0612C34.6178 30.2636 34.6178 32.2132 33.4156 33.4156C32.8144 34.0168 32.0263 34.3173 31.2383 34.3173Z"
      fill="white"
    />
    <path
      d="M97.6885 100.768C96.9006 100.768 96.1125 100.467 95.5113 99.8659L83.5843 87.9389C82.3821 86.7364 82.3821 84.7868 83.5843 83.5844C84.7867 82.382 86.7363 82.382 87.9387 83.5844L99.8658 95.5114C101.068 96.7138 101.068 98.6634 99.8658 99.8659C99.2645 100.467 98.4765 100.768 97.6885 100.768Z"
      fill="white"
    />
  </svg>